<svg class="logo-char char-animate " xmlns="http://www.w3.org/2000/svg" width="17.9"
    height="27.2"
    viewBox="0 0 17.9 27.2"
>
    <path id="Path_44568" data-name="Path 44568"
        d="M9.4,14.2c1.8-2.6,6-8.8,7.3-10.9.1-.2.2-.4.5-.4h3.5c.3-.1.3.1.3.3-1.6,2.3-6.2,8.9-8.2,11.6-.4.6-.4.8-.4,1a1.854,1.854,0,0,0,.4,1c2.1,2.9,7.7,11.2,8.6,12.8,0,.3-.1.4-.3.4H17.6c-.3,0-.6-.2-.6-.4-1.3-2.1-5.7-9.1-7.6-11.9-.3-.5-.6-.5-1.6-.5-.2,0-.2.1-.2.2V29.5c-.2.4-.3.5-.6.5H3.9a.43.43,0,0,1-.4-.4V3.2a.43.43,0,0,1,.4-.4H7a.43.43,0,0,1,.4.4v11c0,.2.2.2.4.2C8.9,14.5,9.3,14.4,9.4,14.2Z"
        transform="translate(-3.5 -2.8)"></path>
</svg>